<?xml version="1.0" encoding="UTF-8" standalone="no"?>
<svg
   xmlns:dc="http://purl.org/dc/elements/1.1/"
   xmlns:cc="http://creativecommons.org/ns#"
   xmlns:rdf="http://www.w3.org/1999/02/22-rdf-syntax-ns#"
   xmlns:svg="http://www.w3.org/2000/svg"
   xmlns="http://www.w3.org/2000/svg"
   xmlns:sodipodi="http://sodipodi.sourceforge.net/DTD/sodipodi-0.dtd"
   xmlns:inkscape="http://www.inkscape.org/namespaces/inkscape"
   sodipodi:docname="gpu_backplate.svg"
   inkscape:version="1.0 (4035a4fb49, 2020-05-01)"
   id="svg8"
   version="1.1"
   viewBox="0 0 300 210"
   height="210mm"
   width="300mm">
  <defs
     id="defs2" />
  <sodipodi:namedview
     id="base"
     pagecolor="#ffffff"
     bordercolor="#666666"
     borderopacity="1.0"
     inkscape:pageopacity="0.0"
     inkscape:pageshadow="2"
     inkscape:zoom="0.98994949"
     inkscape:cx="548.1206"
     inkscape:cy="403.04474"
     inkscape:document-units="mm"
     inkscape:current-layer="layer2"
     inkscape:document-rotation="0"
     showgrid="false"
     borderlayer="true"
     inkscape:showpageshadow="false"
     inkscape:window-width="1718"
     inkscape:window-height="1347"
     inkscape:window-x="1713"
     inkscape:window-y="0"
     inkscape:window-maximized="0" />
  <metadata
     id="metadata5">
    <rdf:RDF>
      <cc:Work
         rdf:about="">
        <dc:format>image/svg+xml</dc:format>
        <dc:type
           rdf:resource="http://purl.org/dc/dcmitype/StillImage" />
        <dc:title></dc:title>
      </cc:Work>
    </rdf:RDF>
  </metadata>
  <g
     style="display:none"
     inkscape:label="background"
     inkscape:groupmode="layer"
     id="layer1"
     sodipodi:insensitive="true">
    <rect
       style="fill:#000000;fill-opacity:0.0722891;stroke:none;stroke-width:0;stroke-miterlimit:1.5;stroke-dasharray:none"
       id="rect833"
       width="300"
       height="210"
       x="0"
       y="0" />
  </g>
  <g
     inkscape:groupmode="layer"
     id="layer2"
     inkscape:label="cut_outermost">
    <path
       d="M 20.8263 19.5246 L 20.8263 151.525 L 23.8263 154.525 L 120.826 154.525 L 123.826 151.525 L 123.826 54.0246 L 120.826 51.0246 L 120.826 19.5246 L 117.826 16.5246 L 23.8263 16.5246 Z"
       style="fill:none;stroke:#000000;stroke-width:0.238125;stroke-linecap:round"
       id="path1541" />
  </g>
  <g
     inkscape:groupmode="layer"
     id="layer3"
     inkscape:label="cut_mid" />
  <g
     inkscape:groupmode="layer"
     id="layer4"
     inkscape:label="cut_innermost">
    <path
       d="m 118.12627,61.024632 a 1.500005,1.500005 0 1 0 -3.00001,0 1.500005,1.500005 0 1 0 3.00001,0 z"
       style="fill:none;stroke:#000000;stroke-width:0.238125;stroke-linecap:round"
       id="path1533" />
    <path
       d="m 26.526266,110.52463 a 1.500001,1.500001 0 1 0 -3.000002,0 1.500001,1.500001 0 1 0 3.000002,0 z"
       style="fill:none;stroke:#000000;stroke-width:0.238125;stroke-linecap:round"
       id="path1535" />
    <path
       d="m 26.526266,26.524633 a 1.500001,1.500001 0 1 0 -3.000002,0 1.500001,1.500001 0 1 0 3.000002,0 z"
       style="fill:none;stroke:#000000;stroke-width:0.238125;stroke-linecap:round"
       id="path1537" />
    <path
       d="m 118.12627,145.02463 a 1.500005,1.500005 0 1 0 -3.00001,0 1.500005,1.500005 0 1 0 3.00001,0 z"
       style="fill:none;stroke:#000000;stroke-width:0.238125;stroke-linecap:round"
       id="path1539" />
  </g>
  <g
     inkscape:groupmode="layer"
     id="layer5"
     inkscape:label="engrave_2" />
  <g
     inkscape:groupmode="layer"
     id="layer6"
     inkscape:label="engrave_1" />
</svg>
