<?xml version="1.0" encoding="UTF-8" standalone="no"?>
<svg
   xmlns:dc="http://purl.org/dc/elements/1.1/"
   xmlns:cc="http://creativecommons.org/ns#"
   xmlns:rdf="http://www.w3.org/1999/02/22-rdf-syntax-ns#"
   xmlns:svg="http://www.w3.org/2000/svg"
   xmlns="http://www.w3.org/2000/svg"
   xmlns:sodipodi="http://sodipodi.sourceforge.net/DTD/sodipodi-0.dtd"
   xmlns:inkscape="http://www.inkscape.org/namespaces/inkscape"
   width="300mm"
   height="210mm"
   viewBox="0 0 300 210"
   version="1.1"
   id="svg8"
   inkscape:version="1.0 (4035a4fb49, 2020-05-01)"
   sodipodi:docname="psu_backplate.svg">
  <defs
     id="defs2" />
  <sodipodi:namedview
     id="base"
     pagecolor="#ffffff"
     bordercolor="#666666"
     borderopacity="1.0"
     inkscape:pageopacity="0.0"
     inkscape:pageshadow="2"
     inkscape:zoom="0.98994949"
     inkscape:cx="521.82899"
     inkscape:cy="399.83298"
     inkscape:document-units="mm"
     inkscape:current-layer="layer2"
     inkscape:document-rotation="0"
     showgrid="false"
     borderlayer="true"
     inkscape:showpageshadow="false"
     inkscape:window-width="1718"
     inkscape:window-height="1347"
     inkscape:window-x="1713"
     inkscape:window-y="0"
     inkscape:window-maximized="0" />
  <metadata
     id="metadata5">
    <rdf:RDF>
      <cc:Work
         rdf:about="">
        <dc:format>image/svg+xml</dc:format>
        <dc:type
           rdf:resource="http://purl.org/dc/dcmitype/StillImage" />
        <dc:title></dc:title>
      </cc:Work>
    </rdf:RDF>
  </metadata>
  <g
     style="display:none"
     inkscape:label="background"
     inkscape:groupmode="layer"
     id="layer1"
     sodipodi:insensitive="true">
    <rect
       style="fill:#000000;fill-opacity:0.0722891;stroke:none;stroke-width:0;stroke-miterlimit:1.5;stroke-dasharray:none"
       id="rect833"
       width="300"
       height="210"
       x="0"
       y="0" />
  </g>
  <g
     inkscape:groupmode="layer"
     id="layer2"
     inkscape:label="cut_outermost">
    <path
       d="M 172.459 21.7787 L 154.459 21.7787 L 154.459 31.7787 C 154.459 32.5743 154.143 33.3374 153.58 33.9 C 153.018 34.4626 152.254 34.7787 151.459 34.7787 L 63.4588 34.7787 C 62.6632 34.7787 61.9001 34.4626 61.3375 33.9 C 60.7749 33.3374 60.4588 32.5743 60.4588 31.7787 L 60.4588 21.7787 L 27.4588 21.7787 L 27.4588 195.779 L 172.459 195.779 Z"
       style="fill:none;stroke:#000000;stroke-width:0.238125;stroke-linecap:round"
       id="path3262" />
  </g>
  <g
     inkscape:groupmode="layer"
     id="layer3"
     inkscape:label="cut_mid" />
  <g
     inkscape:groupmode="layer"
     id="layer4"
     inkscape:label="cut_innermost">
    <path
       d="m 36.958798,187.77869 a 1.5,1.5 0 1 0 -2.99998,0 1.5,1.5 0 1 0 2.99998,0 z"
       style="fill:none;stroke:#000000;stroke-width:0.238125;stroke-linecap:round"
       id="path3254" />
    <path
       d="m 165.95882,187.77869 a 1.500005,1.500005 0 1 0 -3.00001,0 1.500005,1.500005 0 1 0 3.00001,0 z"
       style="fill:none;stroke:#000000;stroke-width:0.238125;stroke-linecap:round"
       id="path3256" />
    <path
       d="m 36.958798,29.778694 a 1.5,1.5 0 1 0 -2.99998,0 1.5,1.5 0 1 0 2.99998,0 z"
       style="fill:none;stroke:#000000;stroke-width:0.238125;stroke-linecap:round"
       id="path3258" />
    <path
       d="m 165.95882,29.778694 a 1.500005,1.500005 0 1 0 -3.00001,0 1.500005,1.500005 0 1 0 3.00001,0 z"
       style="fill:none;stroke:#000000;stroke-width:0.238125;stroke-linecap:round"
       id="path3260" />
    <path
       d="m 165.2088,173.27869 a 1.25,1.25 0 1 0 -2.49999,0 1.25,1.25 0 1 0 2.49999,0 z"
       style="fill:none;stroke:#000000;stroke-width:0.238125;stroke-linecap:round"
       id="path3282" />
    <path
       d="m 37.208808,173.27869 a 1.25,1.25 0 1 0 -2.5,0 1.25,1.25 0 1 0 2.5,0 z"
       style="fill:none;stroke:#000000;stroke-width:0.238125;stroke-linecap:round"
       id="path3284" />
    <path
       d="m 165.2088,44.278682 a 1.25,1.25 0 1 0 -2.49999,0 1.25,1.25 0 1 0 2.49999,0 z"
       style="fill:none;stroke:#000000;stroke-width:0.238125;stroke-linecap:round"
       id="path3286" />
    <path
       d="m 37.208808,59.278677 a 1.25,1.25 0 1 0 -2.5,0 1.25,1.25 0 1 0 2.5,0 z"
       style="fill:none;stroke:#000000;stroke-width:0.238125;stroke-linecap:round"
       id="path3288" />
  </g>
  <g
     inkscape:groupmode="layer"
     id="layer5"
     inkscape:label="engrave_2" />
  <g
     inkscape:groupmode="layer"
     id="layer6"
     inkscape:label="engrave_1" />
</svg>
