<?xml version="1.0" encoding="UTF-8" standalone="no"?>
<svg
   viewBox="0 0 793.7007874015749 1122.5196850393702"
   width="793.7007874015749"
   height="1122.5196850393702"
   version="1.1"
   id="svg10118"
   sodipodi:docname="sheet-rear.svg"
   inkscape:version="1.2.1 (9c6d41e410, 2022-07-14)"
   xmlns:inkscape="http://www.inkscape.org/namespaces/inkscape"
   xmlns:sodipodi="http://sodipodi.sourceforge.net/DTD/sodipodi-0.dtd"
   xmlns="http://www.w3.org/2000/svg"
   xmlns:svg="http://www.w3.org/2000/svg">
  <sodipodi:namedview
     id="namedview10120"
     pagecolor="#ffffff"
     bordercolor="#000000"
     borderopacity="0.25"
     inkscape:showpageshadow="2"
     inkscape:pageopacity="0.0"
     inkscape:pagecheckerboard="0"
     inkscape:deskcolor="#d1d1d1"
     showgrid="false"
     inkscape:zoom="0.64693626"
     inkscape:cx="864.84564"
     inkscape:cy="437.4465"
     inkscape:window-width="3440"
     inkscape:window-height="1369"
     inkscape:window-x="-8"
     inkscape:window-y="-8"
     inkscape:window-maximized="1"
     inkscape:current-layer="layer3" />
  <desc
     id="desc9873">rear-panel^Hafgufa-export.DXF - scale = 1.000000, origin = (0.000000, 0.000000), method = manual</desc>
  <defs
     id="defs9888">
    <marker
       id="DistanceX"
       orient="auto"
       refX="0.0"
       refY="0.0"
       style="overflow:visible">
      <path
         d="M 3,-3 L -3,3 M 0,-5 L  0,5"
         style="stroke:#000000; stroke-width:0.5"
         id="path9875" />
    </marker>
    <pattern
       id="Hatch"
       patternUnits="userSpaceOnUse"
       width="8"
       height="8"
       x="0"
       y="0">
      <path
         d="M8 4 l-4,4"
         stroke="#000000"
         stroke-width="0.25"
         linecap="square"
         id="path9878" />
      <path
         d="M6 2 l-4,4"
         stroke="#000000"
         stroke-width="0.25"
         linecap="square"
         id="path9880" />
      <path
         d="M4 0 l-4,4"
         stroke="#000000"
         stroke-width="0.25"
         linecap="square"
         id="path9882" />
    </pattern>
    <symbol
       id="*Model_Space" />
    <symbol
       id="*Paper_Space" />
    <symbol
       id="*Paper_Space0" />
  </defs>
  <g
     inkscape:groupmode="layer"
     id="layer3"
     inkscape:label="outer">
    <g
       id="g10243">
      <path
         style="fill:none;stroke:#000000;stroke-width:3.571;stroke-linecap:round"
         d="m 548.6855,4.8095 -3.02,-3.024"
         id="path9990" />
      <path
         style="fill:none;stroke:#000000;stroke-width:3.571;stroke-linecap:round"
         d="m 548.6855,4.8095 v 15.631"
         id="path9992" />
      <path
         d="m 548.68533,20.44049 a 3.7795282,3.7795282 0 0 0 5.34506,5.34506"
         style="fill:none;stroke:#000000;stroke-width:3.571;stroke-linecap:round"
         id="path9994" />
      <path
         d="m 857.04106,25.78555 a 3.7795282,3.7795282 0 0 0 5.34506,-5.34506"
         style="fill:none;stroke:#000000;stroke-width:3.571;stroke-linecap:round"
         id="path9996" />
      <path
         style="fill:none;stroke:#000000;stroke-width:3.571;stroke-linecap:round"
         d="M 862.3855,20.4405 V 4.8095"
         id="path9998" />
      <path
         style="fill:none;stroke:#000000;stroke-width:3.571;stroke-linecap:round"
         d="m 865.4055,1.7855 -3.02,3.024"
         id="path10000" />
      <path
         style="fill:none;stroke:#000000;stroke-width:3.571;stroke-linecap:round"
         d="m 865.4055,1.7855 h 220.24"
         id="path10002" />
      <path
         style="fill:none;stroke:#000000;stroke-width:3.571;stroke-linecap:round"
         d="m 1088.6655,4.8095 -3.02,-3.024"
         id="path10004" />
      <path
         style="fill:none;stroke:#000000;stroke-width:3.571;stroke-linecap:round"
         d="m 1088.6655,4.8095 v 15.631"
         id="path10006" />
      <path
         d="m 1088.6664,20.44049 a 3.7795423,3.7795423 0 0 0 5.3451,5.34506"
         style="fill:none;stroke:#000000;stroke-width:3.571;stroke-linecap:round"
         id="path10008" />
      <path
         d="m 1598.5088,25.78555 a 3.779528,3.779528 0 0 0 5.345,-5.34506"
         style="fill:none;stroke:#000000;stroke-width:3.571;stroke-linecap:round"
         id="path10010" />
      <path
         style="fill:none;stroke:#000000;stroke-width:3.571;stroke-linecap:round"
         d="M 1603.8555,20.4405 V 4.8095"
         id="path10012" />
      <path
         style="fill:none;stroke:#000000;stroke-width:3.571;stroke-linecap:round"
         d="m 1606.8755,1.7855 -3.02,3.024"
         id="path10014" />
      <path
         style="fill:none;stroke:#000000;stroke-width:3.571;stroke-linecap:round"
         d="m 1606.8755,1.7855 h 69.55"
         id="path10016" />
      <path
         style="fill:none;stroke:#000000;stroke-width:3.571;stroke-linecap:round"
         d="m 1679.4455,4.8095 -3.02,-3.024"
         id="path10018" />
      <path
         style="fill:none;stroke:#000000;stroke-width:3.571;stroke-linecap:round"
         d="m 1679.4455,4.8095 v 15.631"
         id="path10020" />
      <path
         d="m 1679.4444,20.44049 a 3.779528,3.779528 0 0 0 5.345,5.34506"
         style="fill:none;stroke:#000000;stroke-width:3.571;stroke-linecap:round"
         id="path10022" />
      <path
         d="m 262.71035,25.78555 a 3.7795282,3.7795282 0 1 0 5.34506,-5.34506"
         style="fill:none;stroke:#000000;stroke-width:3.571;stroke-linecap:round"
         id="path10084" />
      <path
         style="fill:none;stroke:#000000;stroke-width:3.571;stroke-linecap:round"
         d="M 268.0555,20.4405 V 4.8095"
         id="path10086" />
      <path
         style="fill:none;stroke:#000000;stroke-width:3.571;stroke-linecap:round"
         d="m 271.0755,1.7855 -3.02,3.024"
         id="path10088" />
      <path
         style="fill:none;stroke:#000000;stroke-width:3.571;stroke-linecap:round"
         d="m 271.0755,1.7855 h 274.59"
         id="path10090" />
      <path
         style="fill:none;stroke:#000000;stroke-width:3.571;stroke-linecap:round"
         d="m 1.7855,25.7855 h 260.92"
         id="path10094" />
      <path
         style="fill:none;stroke:#000000;stroke-width:3.571;stroke-linecap:round"
         d="m 554.0255,25.7855 h 303.02"
         id="path10106" />
      <path
         style="fill:none;stroke:#000000;stroke-width:3.571;stroke-linecap:round"
         d="m 1684.7855,25.7855 h 70.25"
         id="path10108" />
      <path
         style="fill:none;stroke:#000000;stroke-width:3.571;stroke-linecap:round"
         d="m 1094.0155,25.7855 h 504.49"
         id="path10114" />
      <path
         d="m 1684.7894,252.55725 a 3.779528,3.779528 0 0 0 -5.345,5.345"
         style="fill:none;stroke:#000000;stroke-width:3.571;stroke-linecap:round"
         id="path10026" />
      <path
         style="fill:none;stroke:#000000;stroke-width:3.571;stroke-linecap:round"
         d="m 1679.4455,257.90255 v 15.631"
         id="path10028" />
      <path
         style="fill:none;stroke:#000000;stroke-width:3.571;stroke-linecap:round"
         d="m 1676.4255,276.55755 3.02,-3.024"
         id="path10030" />
      <path
         style="fill:none;stroke:#000000;stroke-width:3.571;stroke-linecap:round"
         d="m 1676.4255,276.55755 h -69.55"
         id="path10032" />
      <path
         style="fill:none;stroke:#000000;stroke-width:3.571;stroke-linecap:round"
         d="m 1603.8555,273.53355 3.02,3.024"
         id="path10034" />
      <path
         style="fill:none;stroke:#000000;stroke-width:3.571;stroke-linecap:round"
         d="m 1603.8555,273.53355 v -15.631"
         id="path10036" />
      <path
         d="m 1603.8538,257.90225 a 3.779528,3.779528 0 0 0 -5.345,-5.345"
         style="fill:none;stroke:#000000;stroke-width:3.571;stroke-linecap:round"
         id="path10038" />
      <path
         d="m 1094.0115,252.55725 a 3.779528,3.779528 0 0 0 -5.3451,5.345"
         style="fill:none;stroke:#000000;stroke-width:3.571;stroke-linecap:round"
         id="path10040" />
      <path
         style="fill:none;stroke:#000000;stroke-width:3.571;stroke-linecap:round"
         d="m 1088.6655,257.90255 v 15.631"
         id="path10042" />
      <path
         style="fill:none;stroke:#000000;stroke-width:3.571;stroke-linecap:round"
         d="m 1085.6455,276.55755 3.02,-3.024"
         id="path10044" />
      <path
         style="fill:none;stroke:#000000;stroke-width:3.571;stroke-linecap:round"
         d="m 1085.6455,276.55755 h -220.24"
         id="path10046" />
      <path
         style="fill:none;stroke:#000000;stroke-width:3.571;stroke-linecap:round"
         d="m 862.3855,273.53355 3.02,3.024"
         id="path10048" />
      <path
         style="fill:none;stroke:#000000;stroke-width:3.571;stroke-linecap:round"
         d="m 862.3855,273.53355 v -15.631"
         id="path10050" />
      <path
         d="m 862.38612,257.90225 a 3.779528,3.779528 0 0 0 -5.34506,-5.345"
         style="fill:none;stroke:#000000;stroke-width:3.571;stroke-linecap:round"
         id="path10052" />
      <path
         d="m 391.5107,252.55725 a 3.779528,3.779528 0 0 0 -5.34506,5.345"
         style="fill:none;stroke:#000000;stroke-width:3.571;stroke-linecap:round"
         id="path10054" />
      <path
         style="fill:none;stroke:#000000;stroke-width:3.571;stroke-linecap:round"
         d="m 386.1655,257.90255 v 15.631"
         id="path10056" />
      <path
         style="fill:none;stroke:#000000;stroke-width:3.571;stroke-linecap:round"
         d="m 383.1455,276.55755 3.02,-3.024"
         id="path10058" />
      <path
         style="fill:none;stroke:#000000;stroke-width:3.571;stroke-linecap:round"
         d="m 383.1455,276.55755 h -112.07"
         id="path10060" />
      <path
         style="fill:none;stroke:#000000;stroke-width:3.571;stroke-linecap:round"
         d="m 268.0555,273.53355 3.02,3.024"
         id="path10062" />
      <path
         style="fill:none;stroke:#000000;stroke-width:3.571;stroke-linecap:round"
         d="m 268.0555,273.53355 v -15.631"
         id="path10064" />
      <path
         d="m 268.05541,257.90225 a 3.779528,3.779528 0 0 0 -5.34506,-5.345"
         style="fill:none;stroke:#000000;stroke-width:3.571;stroke-linecap:round"
         id="path10066" />
      <path
         d="m 158.31385,252.55725 a 3.779528,3.779528 0 0 0 -5.34506,5.345"
         style="fill:none;stroke:#000000;stroke-width:3.571;stroke-linecap:round"
         id="path10068" />
      <path
         style="fill:none;stroke:#000000;stroke-width:3.571;stroke-linecap:round"
         d="m 152.9655,257.90255 v 15.631"
         id="path10070" />
      <path
         style="fill:none;stroke:#000000;stroke-width:3.571;stroke-linecap:round"
         d="m 149.9455,276.55755 3.02,-3.024"
         id="path10072" />
      <path
         style="fill:none;stroke:#000000;stroke-width:3.571;stroke-linecap:round"
         d="m 149.9455,276.55755 h -69.54"
         id="path10074" />
      <path
         style="fill:none;stroke:#000000;stroke-width:3.571;stroke-linecap:round"
         d="m 77.3755,273.53355 3.03,3.024"
         id="path10076" />
      <path
         style="fill:none;stroke:#000000;stroke-width:3.571;stroke-linecap:round"
         d="m 77.3755,273.53355 v -15.631"
         id="path10078" />
      <path
         d="m 77.378242,257.90225 a 3.779528,3.779528 0 0 0 -5.345059,-5.345"
         style="fill:none;stroke:#000000;stroke-width:3.571;stroke-linecap:round"
         id="path10080" />
      <path
         style="fill:none;stroke:#000000;stroke-width:3.571;stroke-linecap:round"
         d="m 857.0455,252.55755 h -465.53"
         id="path10098" />
      <path
         style="fill:none;stroke:#000000;stroke-width:3.571;stroke-linecap:round"
         d="M 72.0355,252.55755 H 1.7855"
         id="path10102" />
      <path
         style="fill:none;stroke:#000000;stroke-width:3.571;stroke-linecap:round"
         d="m 262.7055,252.55755 h -104.39"
         id="path10104" />
      <path
         style="fill:none;stroke:#000000;stroke-width:3.571;stroke-linecap:round"
         d="m 1598.5055,252.55755 h -504.49"
         id="path10110" />
      <path
         style="fill:none;stroke:#000000;stroke-width:3.571;stroke-linecap:round"
         d="m 1755.0355,252.55755 h -70.25"
         id="path10112" />
      <path
         style="fill:none;stroke:#000000;stroke-width:3.571;stroke-linecap:round"
         d="M 1755.0355,25.7855 V 252.55755"
         id="path10024" />
      <path
         style="fill:none;stroke:#000000;stroke-width:3.571;stroke-linecap:round"
         d="M 1.7855,252.55755 V 25.7855"
         id="path10082" />
    </g>
  </g>
  <g
     inkscape:groupmode="layer"
     inkscape:label="inner"
     id="g10116"
     style="display:inline">
    <path
       d="m 1726.6885,63.58082 a 9.44885,9.44885 0 0 0 -18.8977,0 9.44885,9.44885 0 0 0 18.8977,0 z"
       style="fill:none;stroke:#000000;stroke-width:3.571;stroke-linecap:round"
       id="path9890" />
    <path
       d="m 1726.6885,214.76195 a 9.44885,9.44885 0 0 0 -18.8977,0 9.44885,9.44885 0 0 0 18.8977,0 z"
       style="fill:none;stroke:#000000;stroke-width:3.571;stroke-linecap:round"
       id="path9892" />
    <path
       d="m 49.031786,214.76195 a 9.448819,9.448819 0 0 0 -18.897638,0 9.448819,9.448819 0 0 0 18.897638,0 z"
       style="fill:none;stroke:#000000;stroke-width:3.571;stroke-linecap:round"
       id="path9894" />
    <path
       d="m 49.031786,63.58082 a 9.448819,9.448819 0 0 0 -18.897638,0 9.448819,9.448819 0 0 0 18.897638,0 z"
       style="fill:none;stroke:#000000;stroke-width:3.571;stroke-linecap:round"
       id="path9896" />
    <path
       d="m 484.91971,105.15563 a 4.72441,4.72441 0 0 0 -9.44882,0 4.72441,4.72441 0 0 0 9.44882,0 z"
       style="fill:none;stroke:#000000;stroke-width:3.571;stroke-linecap:round"
       id="path9898" />
    <path
       d="m 888.84281,203.42335 a 5.6692915,5.6692915 0 0 0 11.33858,0"
       style="fill:none;stroke:#000000;stroke-width:3.571;stroke-linecap:round"
       id="path9900" />
    <path
       style="fill:none;stroke:#000000;stroke-width:3.571;stroke-linecap:round"
       d="m 900.1855,181.12455 v 22.299"
       id="path9902" />
    <path
       style="fill:none;stroke:#000000;stroke-width:3.571;stroke-linecap:round"
       d="m 888.8455,203.42355 v -22.299"
       id="path9906" />
    <path
       d="m 924.74832,67.36035 a 5.6692915,5.6692915 0 0 0 -11.33858,0 5.6692915,5.6692915 0 0 0 11.33858,0 z"
       style="fill:none;stroke:#000000;stroke-width:3.571;stroke-linecap:round"
       id="path9908" />
    <path
       d="m 924.74832,142.9509 a 5.6692915,5.6692915 0 0 0 -11.33858,0 5.6692915,5.6692915 0 0 0 11.33858,0 z"
       style="fill:none;stroke:#000000;stroke-width:3.571;stroke-linecap:round"
       id="path9910" />
    <path
       style="fill:none;stroke:#000000;stroke-width:3.571;stroke-linecap:round"
       d="m 371.9955,232.71455 v 3.78"
       id="path9912" />
    <path
       d="m 371.99242,232.71465 a 5.669295,5.669295 0 0 0 -11.33859,0"
       style="fill:none;stroke:#000000;stroke-width:3.571;stroke-linecap:round"
       id="path9914" />
    <path
       style="fill:none;stroke:#000000;stroke-width:3.571;stroke-linecap:round"
       d="m 360.6555,236.49455 v -3.78"
       id="path9916" />
    <path
       d="m 360.65383,236.49425 a 5.669295,5.669295 0 0 0 11.33859,0"
       style="fill:none;stroke:#000000;stroke-width:3.571;stroke-linecap:round"
       id="path9918" />
    <path
       d="m 373.88218,176.02175 a 68.031496,68.031496 0 0 0 -136.06299,0 68.031496,68.031496 0 0 0 136.06299,0 z"
       style="fill:none;stroke:#000000;stroke-width:3.571;stroke-linecap:round"
       id="path9920" />
    <path
       style="fill:none;stroke:#000000;stroke-width:3.571;stroke-linecap:round"
       d="m 371.9955,111.7695 v 3.78"
       id="path9922" />
    <path
       d="m 371.99242,111.7698 a 5.669295,5.669295 0 0 0 -11.33859,0"
       style="fill:none;stroke:#000000;stroke-width:3.571;stroke-linecap:round"
       id="path9924" />
    <path
       style="fill:none;stroke:#000000;stroke-width:3.571;stroke-linecap:round"
       d="m 360.6555,115.5495 v -3.78"
       id="path9926" />
    <path
       d="m 360.65383,115.54933 a 5.669295,5.669295 0 0 0 11.33859,0"
       style="fill:none;stroke:#000000;stroke-width:3.571;stroke-linecap:round"
       id="path9928" />
    <path
       style="fill:none;stroke:#000000;stroke-width:3.571;stroke-linecap:round"
       d="m 141.2555,235.54955 v 3.779"
       id="path9930" />
    <path
       d="m 141.25226,235.54935 a 5.6692915,5.6692915 0 0 0 -11.33858,0"
       style="fill:none;stroke:#000000;stroke-width:3.571;stroke-linecap:round"
       id="path9932" />
    <path
       style="fill:none;stroke:#000000;stroke-width:3.571;stroke-linecap:round"
       d="m 129.9155,239.32855 v -3.779"
       id="path9934" />
    <path
       d="m 129.91368,239.32885 a 5.6692915,5.6692915 0 0 0 11.33858,0"
       style="fill:none;stroke:#000000;stroke-width:3.571;stroke-linecap:round"
       id="path9936" />
    <path
       style="fill:none;stroke:#000000;stroke-width:3.571;stroke-linecap:round"
       d="m 100.4355,231.76955 v 3.78"
       id="path9938" />
    <path
       d="m 100.43336,231.76985 a 5.669291,5.669291 0 0 0 -11.338582,0"
       style="fill:none;stroke:#000000;stroke-width:3.571;stroke-linecap:round"
       id="path9940" />
    <path
       style="fill:none;stroke:#000000;stroke-width:3.571;stroke-linecap:round"
       d="m 89.0955,235.54955 v -3.78"
       id="path9942" />
    <path
       d="m 89.094778,235.54935 a 5.669291,5.669291 0 0 0 11.338582,0"
       style="fill:none;stroke:#000000;stroke-width:3.571;stroke-linecap:round"
       id="path9944" />
    <path
       d="m 966.32312,214.76195 a 5.669291,5.669291 0 0 0 -11.33858,0 5.669291,5.669291 0 0 0 11.33858,0 z"
       style="fill:none;stroke:#000000;stroke-width:3.571;stroke-linecap:round"
       id="path9946" />
    <path
       d="m 1018.7452,63.58082 a 5.6693,5.6693 0 0 0 -11.3386,0 5.6693,5.6693 0 0 0 11.3386,0 z"
       style="fill:none;stroke:#000000;stroke-width:3.571;stroke-linecap:round"
       id="path9948" />
    <path
       d="m 89.148498,105.15563 a 3.779528,3.779528 0 0 0 -5.345059,5.34506"
       style="fill:none;stroke:#000000;stroke-width:3.571;stroke-linecap:round"
       id="path9950" />
    <path
       style="fill:none;stroke:#000000;stroke-width:3.571;stroke-linecap:round"
       d="M 83.8055,215.08655 V 110.5005"
       id="path9952" />
    <path
       d="m 83.803439,215.08615 a 3.779542,3.779542 0 0 0 5.345059,5.3451"
       style="fill:none;stroke:#000000;stroke-width:3.571;stroke-linecap:round"
       id="path9954" />
    <path
       style="fill:none;stroke:#000000;stroke-width:3.571;stroke-linecap:round"
       d="M 223.9655,220.43155 H 89.1455"
       id="path9956" />
    <path
       style="fill:none;stroke:#000000;stroke-width:3.571;stroke-linecap:round"
       d="M 229.3155,110.5005 V 215.08655"
       id="path9958" />
    <path
       d="m 229.31525,110.50069 a 3.7795282,3.7795282 0 0 0 -5.34506,-5.34506"
       style="fill:none;stroke:#000000;stroke-width:3.571;stroke-linecap:round"
       id="path9960" />
    <path
       style="fill:none;stroke:#000000;stroke-width:3.571;stroke-linecap:round"
       d="m 89.1455,105.1555 h 134.82"
       id="path9962" />
    <path
       style="fill:none;stroke:#000000;stroke-width:3.571;stroke-linecap:round"
       d="M 1650.8755,74.9735 V 233.22755"
       id="path9964" />
    <path
       d="m 1650.8712,74.97313 a 3.7795423,3.7795423 0 0 0 -5.3451,-5.34506"
       style="fill:none;stroke:#000000;stroke-width:3.571;stroke-linecap:round"
       id="path9966" />
    <path
       style="fill:none;stroke:#000000;stroke-width:3.571;stroke-linecap:round"
       d="m 1056.2155,69.6285 h 589.31"
       id="path9968" />
    <path
       style="fill:none;stroke:#000000;stroke-width:3.571;stroke-linecap:round"
       d="M 1050.8755,233.22755 V 74.9735"
       id="path9970" />
    <path
       style="fill:none;stroke:#000000;stroke-width:3.571;stroke-linecap:round"
       d="m 1645.5255,238.57255 h -589.31"
       id="path9972" />
    <path
       d="m 1645.5261,238.57295 a 3.7795565,3.7795565 0 0 0 5.3451,-5.3451"
       style="fill:none;stroke:#000000;stroke-width:3.571;stroke-linecap:round"
       id="path9974" />
    <path
       d="m 516.23511,40.90366 a 3.7795282,3.7795282 0 0 0 -5.34506,5.34506"
       style="fill:none;stroke:#000000;stroke-width:3.571;stroke-linecap:round"
       id="path9976" />
    <path
       style="fill:none;stroke:#000000;stroke-width:3.571;stroke-linecap:round"
       d="M 510.8855,175.40155 V 46.2485"
       id="path9978" />
    <path
       d="m 510.89005,175.40115 a 3.779528,3.779528 0 0 0 5.34506,5.345"
       style="fill:none;stroke:#000000;stroke-width:3.571;stroke-linecap:round"
       id="path9980" />
    <path
       style="fill:none;stroke:#000000;stroke-width:3.571;stroke-linecap:round"
       d="m 900.1855,180.74655 h -383.95"
       id="path9982" />
    <path
       style="fill:none;stroke:#000000;stroke-width:3.571;stroke-linecap:round"
       d="M 900.1855,46.2485 V 180.74655"
       id="path9984" />
    <path
       d="m 900.18139,46.24872 a 3.7795282,3.7795282 0 0 0 -5.34506,-5.34506"
       style="fill:none;stroke:#000000;stroke-width:3.571;stroke-linecap:round"
       id="path9986" />
    <path
       style="fill:none;stroke:#000000;stroke-width:3.571;stroke-linecap:round"
       d="m 516.2355,40.9035 h 378.6"
       id="path9988" />
    <path
       d="m 1056.2162,69.62807 a 3.779528,3.779528 0 0 0 -5.345,5.34506"
       style="fill:none;stroke:#000000;stroke-width:3.571;stroke-linecap:round"
       id="path10092" />
    <path
       d="m 1050.8712,233.22785 a 3.779528,3.779528 0 0 0 5.345,5.3451"
       style="fill:none;stroke:#000000;stroke-width:3.571;stroke-linecap:round"
       id="path10096" />
    <path
       d="m 223.97019,220.43125 a 3.7795423,3.7795423 0 0 0 5.34506,-5.3451"
       style="fill:none;stroke:#000000;stroke-width:3.571;stroke-linecap:round"
       id="path10100" />
  </g>
</svg>
