<?xml version="1.0" encoding="UTF-8" standalone="no"?>
<svg
   viewBox="0 0 793.7007874015749 1122.5196850393702"
   width="793.7007874015749"
   height="1122.5196850393702"
   version="1.1"
   id="svg9646"
   sodipodi:docname="sheet-top.svg"
   inkscape:version="1.2.1 (9c6d41e410, 2022-07-14)"
   xmlns:inkscape="http://www.inkscape.org/namespaces/inkscape"
   xmlns:sodipodi="http://sodipodi.sourceforge.net/DTD/sodipodi-0.dtd"
   xmlns="http://www.w3.org/2000/svg"
   xmlns:svg="http://www.w3.org/2000/svg">
  <sodipodi:namedview
     id="namedview9648"
     pagecolor="#ffffff"
     bordercolor="#000000"
     borderopacity="0.25"
     inkscape:showpageshadow="2"
     inkscape:pageopacity="0.0"
     inkscape:pagecheckerboard="0"
     inkscape:deskcolor="#d1d1d1"
     showgrid="false"
     inkscape:zoom="0.45745302"
     inkscape:cx="145.37012"
     inkscape:cy="835.05844"
     inkscape:window-width="3440"
     inkscape:window-height="1369"
     inkscape:window-x="-8"
     inkscape:window-y="-8"
     inkscape:window-maximized="1"
     inkscape:current-layer="layer2" />
  <desc
     id="desc9553">top-plate^Hafgufa-export.DXF - scale = 1.000000, origin = (0.000000, 0.000000), method = manual</desc>
  <defs
     id="defs9568">
    <marker
       id="DistanceX"
       orient="auto"
       refX="0.0"
       refY="0.0"
       style="overflow:visible">
      <path
         d="M 3,-3 L -3,3 M 0,-5 L  0,5"
         style="stroke:#000000; stroke-width:0.5"
         id="path9555" />
    </marker>
    <pattern
       id="Hatch"
       patternUnits="userSpaceOnUse"
       width="8"
       height="8"
       x="0"
       y="0">
      <path
         d="M8 4 l-4,4"
         stroke="#000000"
         stroke-width="0.25"
         linecap="square"
         id="path9558" />
      <path
         d="M6 2 l-4,4"
         stroke="#000000"
         stroke-width="0.25"
         linecap="square"
         id="path9560" />
      <path
         d="M4 0 l-4,4"
         stroke="#000000"
         stroke-width="0.25"
         linecap="square"
         id="path9562" />
    </pattern>
    <symbol
       id="*Model_Space" />
    <symbol
       id="*Paper_Space" />
    <symbol
       id="*Paper_Space0" />
  </defs>
  <g
     inkscape:groupmode="layer"
     id="layer2"
     inkscape:label="outer">
    <g
       id="g9693">
      <path
         d="M 1814.8536,311.50994 A 18.897638,18.897638 0 0 0 1795.9559,292.6123"
         style="fill:none;stroke:#000000;stroke-width:3.571;stroke-linecap:round"
         id="path9570" />
      <path
         d="M 80.503956,292.6123 A 18.897638,18.897638 0 0 0 61.606318,311.50994"
         style="fill:none;stroke:#000000;stroke-width:3.571;stroke-linecap:round"
         id="path9572" />
      <path
         style="fill:none;stroke:#000000;stroke-width:3.571;stroke-linecap:round"
         d="M 1795.9555,292.61243 H 80.505496"
         id="path9574" />
      <path
         style="fill:none;stroke:#000000;stroke-width:3.571;stroke-linecap:round"
         d="M 1814.8555,1045.3994 V 311.51043"
         id="path9638" />
      <path
         style="fill:none;stroke:#000000;stroke-width:3.571;stroke-linecap:round"
         d="M 61.605496,1045.3994 H 1814.8555"
         id="path9640" />
      <path
         style="fill:none;stroke:#000000;stroke-width:3.571;stroke-linecap:round"
         d="M 61.605496,311.51043 V 1045.3994"
         id="path9642" />
    </g>
  </g>
  <g
     inkscape:groupmode="layer"
     inkscape:label="inner"
     id="g9644">
    <g
       id="g9670">
      <path
         d="m 1786.5071,357.52569 a 9.448819,9.448819 0 0 0 -18.8976,0 9.448819,9.448819 0 0 0 18.8976,0 z"
         style="fill:none;stroke:#000000;stroke-width:3.571;stroke-linecap:round"
         id="path9576" />
      <path
         d="m 1786.5071,682.56506 a 9.448819,9.448819 0 0 0 -18.8976,0 9.448819,9.448819 0 0 0 18.8976,0 z"
         style="fill:none;stroke:#000000;stroke-width:3.571;stroke-linecap:round"
         id="path9578" />
      <path
         d="m 1786.5071,1007.6044 a 9.448819,9.448819 0 0 0 -18.8976,0 9.448819,9.448819 0 0 0 18.8976,0 z"
         style="fill:none;stroke:#000000;stroke-width:3.571;stroke-linecap:round"
         id="path9580" />
      <path
         d="m 108.85041,1007.6044 a 9.448819,9.448819 0 0 0 -18.897635,0 9.448819,9.448819 0 0 0 18.897635,0 z"
         style="fill:none;stroke:#000000;stroke-width:3.571;stroke-linecap:round"
         id="path9582" />
      <path
         d="m 108.85041,682.56506 a 9.448819,9.448819 0 0 0 -18.897635,0 9.448819,9.448819 0 0 0 18.897635,0 z"
         style="fill:none;stroke:#000000;stroke-width:3.571;stroke-linecap:round"
         id="path9584" />
      <path
         d="m 108.85041,357.52569 a 9.448819,9.448819 0 0 0 -18.897635,0 9.448819,9.448819 0 0 0 18.897635,0 z"
         style="fill:none;stroke:#000000;stroke-width:3.571;stroke-linecap:round"
         id="path9586" />
    </g>
    <g
       id="g9662">
      <path
         style="fill:none;stroke:#000000;stroke-width:3.571;stroke-linecap:round"
         d="m 1739.2655,307.73043 h -75.59"
         id="path9588" />
      <path
         style="fill:none;stroke:#000000;stroke-width:3.571;stroke-linecap:round"
         d="m 1663.6755,307.73043 v 12"
         id="path9590" />
      <path
         style="fill:none;stroke:#000000;stroke-width:3.571;stroke-linecap:round"
         d="m 1663.6755,319.73043 h 75.59"
         id="path9592" />
      <path
         style="fill:none;stroke:#000000;stroke-width:3.571;stroke-linecap:round"
         d="m 1739.2655,319.73043 v -12"
         id="path9594" />
      <path
         style="fill:none;stroke:#000000;stroke-width:3.571;stroke-linecap:round"
         d="m 1148.4855,307.73043 h -226.28"
         id="path9596" />
      <path
         style="fill:none;stroke:#000000;stroke-width:3.571;stroke-linecap:round"
         d="m 922.2055,307.73043 v 12"
         id="path9598" />
      <path
         style="fill:none;stroke:#000000;stroke-width:3.571;stroke-linecap:round"
         d="m 922.2055,319.73043 h 226.28"
         id="path9600" />
      <path
         style="fill:none;stroke:#000000;stroke-width:3.571;stroke-linecap:round"
         d="m 1148.4855,319.73043 v -12"
         id="path9602" />
      <path
         style="fill:none;stroke:#000000;stroke-width:3.571;stroke-linecap:round"
         d="m 608.5055,307.73043 h -280.63"
         id="path9604" />
      <path
         style="fill:none;stroke:#000000;stroke-width:3.571;stroke-linecap:round"
         d="m 327.8755,307.73043 v 12"
         id="path9606" />
      <path
         style="fill:none;stroke:#000000;stroke-width:3.571;stroke-linecap:round"
         d="m 327.8755,319.73043 h 280.63"
         id="path9608" />
      <path
         style="fill:none;stroke:#000000;stroke-width:3.571;stroke-linecap:round"
         d="m 608.5055,319.73043 v -12"
         id="path9610" />
    </g>
    <path
       d="m 1282.3446,1007.6044 a 5.6692915,5.6692915 0 0 0 -11.3386,0 5.6692915,5.6692915 0 0 0 11.3386,0 z"
       style="fill:none;stroke:#000000;stroke-width:3.571;stroke-linecap:round"
       id="path9612" />
    <path
       d="m 692.73831,1007.6044 a 5.6692915,5.6692915 0 0 0 -11.33859,0 5.6692915,5.6692915 0 0 0 11.33859,0 z"
       style="fill:none;stroke:#000000;stroke-width:3.571;stroke-linecap:round"
       id="path9614" />
    <path
       d="m 1078.5638,357.52569 a 5.669291,5.669291 0 0 0 -11.3386,0 5.669291,5.669291 0 0 0 11.3386,0 z"
       style="fill:none;stroke:#000000;stroke-width:3.571;stroke-linecap:round"
       id="path9616" />
    <g
       id="g9677">
      <path
         d="m 973.22836,695.79341 a 179.52756,179.52756 0 0 0 -359.05511,0 179.52756,179.52756 0 0 0 359.05511,0 z"
         style="fill:none;stroke:#000000;stroke-width:3.571;stroke-linecap:round"
         id="path9618" />
      <path
         d="m 1000.6299,894.2186 a 8.503937,8.503937 0 0 0 -17.00783,0 8.503937,8.503937 0 0 0 17.00783,0 z"
         style="fill:none;stroke:#000000;stroke-width:3.571;stroke-linecap:round"
         id="path9622" />
      <path
         d="m 1000.6299,497.36821 a 8.503937,8.503937 0 0 0 -17.00783,0 8.503937,8.503937 0 0 0 17.00783,0 z"
         style="fill:none;stroke:#000000;stroke-width:3.571;stroke-linecap:round"
         id="path9624" />
      <path
         d="m 603.77955,497.36821 a 8.503937,8.503937 0 0 0 -17.00788,0 8.503937,8.503937 0 0 0 17.00788,0 z"
         style="fill:none;stroke:#000000;stroke-width:3.571;stroke-linecap:round"
         id="path9626" />
      <path
         d="m 603.77955,894.2186 a 8.503937,8.503937 0 0 0 -17.00788,0 8.503937,8.503937 0 0 0 17.00788,0 z"
         style="fill:none;stroke:#000000;stroke-width:3.571;stroke-linecap:round"
         id="path9630" />
    </g>
    <g
       id="g9684">
      <path
         d="m 1651.6158,850.56506 a 8.503937,8.503937 0 0 0 -17.0079,0 8.503937,8.503937 0 0 0 17.0079,0 z"
         style="fill:none;stroke:#000000;stroke-width:3.571;stroke-linecap:round"
         id="path9620" />
      <path
         d="m 1633.663,652.13986 a 188.97638,188.97638 0 0 0 -377.9527,0 188.97638,188.97638 0 0 0 377.9527,0 z"
         style="fill:none;stroke:#000000;stroke-width:3.571;stroke-linecap:round"
         id="path9628" />
      <path
         d="m 1254.7654,850.56506 a 8.503937,8.503937 0 0 0 -17.0079,0 8.503937,8.503937 0 0 0 17.0079,0 z"
         style="fill:none;stroke:#000000;stroke-width:3.571;stroke-linecap:round"
         id="path9632" />
      <path
         d="m 1254.7654,453.71467 a 8.503937,8.503937 0 0 0 -17.0079,0 8.503937,8.503937 0 0 0 17.0079,0 z"
         style="fill:none;stroke:#000000;stroke-width:3.571;stroke-linecap:round"
         id="path9634" />
      <path
         d="m 1651.6158,453.71467 a 8.503937,8.503937 0 0 0 -17.0079,0 8.503937,8.503937 0 0 0 17.0079,0 z"
         style="fill:none;stroke:#000000;stroke-width:3.571;stroke-linecap:round"
         id="path9636" />
    </g>
  </g>
</svg>
